<svg xmlns="http://www.w3.org/2000/svg" width="400" height="400"><path d="M200.025 100h-.05C144.837 100 100 144.85 100 200a99.25 99.25 0 0019.037 58.612l-12.462 37.15 38.437-12.287A99.125 99.125 0 00200.025 300C255.162 300 300 255.137 300 200s-44.838-100-99.975-100z" fill="#4caf50"/><path d="M258.197 241.198c-2.412 6.812-11.987 12.462-19.625 14.112-5.225 1.113-12.05 2-35.025-7.525-29.387-12.175-48.312-42.037-49.787-43.975-1.413-1.937-11.875-15.812-11.875-30.162s7.287-21.338 10.225-24.338c2.412-2.462 6.4-3.587 10.225-3.587 1.237 0 2.35.062 3.35.112 2.937.125 4.412.3 6.35 4.938 2.412 5.812 8.287 20.162 8.987 21.637.713 1.475 1.425 3.475.425 5.413-.937 2-1.762 2.887-3.237 4.587-1.475 1.7-2.875 3-4.35 4.825-1.35 1.587-2.875 3.288-1.175 6.225 1.7 2.875 7.575 12.463 16.225 20.163 11.162 9.937 20.212 13.112 23.45 14.462 2.412 1 5.287.762 7.05-1.113 2.237-2.412 5-6.412 7.812-10.35 2-2.825 4.525-3.175 7.175-2.175 2.7.938 16.988 8 19.925 9.463 2.938 1.475 4.875 2.175 5.588 3.413.7 1.237.7 7.05-1.713 13.874z" fill="#fafafa"/></svg>