<svg xmlns="http://www.w3.org/2000/svg" width="400" height="400"><path d="M299.84 255.029c0 24.765-20.085 44.811-44.811 44.811H144.971c-24.726 0-44.811-20.085-44.811-44.811V144.971c0-24.726 20.085-44.811 44.811-44.811h110.058c24.726 0 44.811 20.085 44.811 44.811v110.058z" fill="#678aaf"/><path d="M198.635 236.428h7.683s2.34-.273 3.51-1.521c1.092-1.17 1.053-3.393 1.053-3.393s-.156-10.335 4.641-11.856c4.719-1.521 10.803 9.984 17.238 14.39 4.875 3.355 8.58 2.614 8.58 2.614l17.199-.234s9.009-.546 4.719-7.644c-.351-.585-2.496-5.226-12.792-14.781-10.764-9.984-9.321-8.385 3.666-25.701 7.917-10.53 11.076-16.965 10.101-19.734-.936-2.613-6.747-1.911-6.747-1.911l-19.383.117s-1.443-.195-2.496.429-1.716 2.067-1.716 2.067-3.081 8.15-7.176 15.093c-8.619 14.664-12.051 15.405-13.494 14.508-3.276-2.145-2.457-8.502-2.457-13.065 0-14.196 2.145-20.085-4.212-21.645-2.106-.507-3.666-.858-9.048-.897-6.903-.078-12.753.039-16.068 1.638-2.184 1.092-3.9 3.47-2.886 3.627 1.287.156 4.173.78 5.733 2.886 1.989 2.69 1.911 8.775 1.911 8.775s1.131 16.692-2.652 18.798c-2.613 1.443-6.201-1.482-13.884-14.781-3.939-6.786-6.903-14.313-6.903-14.313s-.585-1.404-1.599-2.145c-1.248-.897-2.964-1.21-2.964-1.21l-18.408.118s-2.769.078-3.783 1.287c-.897 1.053-.078 3.276-.078 3.276s14.391 33.696 30.732 50.7c14.976 15.522 31.98 14.508 31.98 14.508z" fill="#fff"/></svg>